<?xml version="1.0"?>
<svg  id="svg2164" viewBox="0 0 336.95 283.02" version="1.0">
  <g id="layer1" fill-rule="evenodd" transform="translate(534.19 -45.136)">
    <path id="path1939" d="m-531.48 239c14.25-20.11 87.66-124.1 99.14-140.65 11.47-16.556 28.41-19.627 49.09-6.558 20.67 13.068 15 9.128 27.46 17.048l-40.6 60.45c-9.26-3.53-19.59-7.18-30.8 10.76s-31.98 40.78-52.5 72.43-66.03 6.62-51.79-13.48z" fill="#fff" class="fil0"/>
    <path id="path1941" d="m-527.43 239.92c11.61-16.73 90.66-130.49 99.13-140.66 8.47-10.162 21.18-17.788 43.21-5.079 5.05 2.913 15 9.129 27.47 17.039l-36.51 53.93c-9.27-3.52-23.64-5.15-33.36 10.39-12.7 20.34-45.71 67.62-55.87 76.94-16.95 22.03-55.69 4.16-44.07-12.56zm61.63 31.1c-5.42-13.12 0.23-30.15 21.75-32.13l-21.75 32.13z" class="fil1"/>
    <polygon id="polygon1943" points="106.38 142.98 126.08 157.08 34.88 282.23 8.9034 297 15.209 268.09" fill="#fff" transform="matrix(1.8375 0 0 1.8375 -534.18 -217.59)" class="fil0"/>
    <polygon id="polygon1945" points="106.83 145.76 123.27 157.54 33.518 280.71 11.813 293.05 17.073 268.93" transform="matrix(1.8375 0 0 1.8375 -534.18 -217.59)" class="fil1"/>
    <path id="path1947" d="m-337.6 119.92c41.58 26.66 93.98 60.93 103.18 66.59 9.12 5.61 26.97 8.17 37.18 8.21v89.52c-48.32 0.85-211.62 4.81-244.71 5.67-37.13 0.96-40.02-52.1 0-53.79s50.08-3.72 62.79-7.11 25.02-12.17 14.89-26.47c-10.14-14.3-12.18-17.36-17.14-23.3l43.81-59.32z" fill="#fff" class="fil0"/>
    <path id="path1949" d="m-339.99 122.49c41.58 26.66 95.79 62.05 103.18 66.59 10.92 6.72 29.35 9.28 39.57 9.32v82.36c-49.14 0.9-217.6 5.13-244.71 5.65-30.37 0.59-38.14-45.97 0-47.66 38.14-1.7 50.08-2.22 62.79-5.61s31.11-13.76 18.64-31.35c-7.8-11.01-13.67-19.61-18.64-25.55l39.17-53.75z" class="fil1"/>
  </g>
  
   
</svg>
